<?xml version="1.0" encoding="UTF-8" standalone="no"?><svg xmlns="http://www.w3.org/2000/svg" xmlns:xlink="http://www.w3.org/1999/xlink" contentScriptType="application/ecmascript" contentStyleType="text/css" height="471px" preserveAspectRatio="none" style="width:586px;height:471px;" version="1.1" viewBox="0 0 586 471" width="586px" zoomAndPan="magnify"><defs><filter height="300%" id="fk7sh80d69rg2" width="300%" x="-1" y="-1"><feGaussianBlur result="blurOut" stdDeviation="2.0"/><feColorMatrix in="blurOut" result="blurOut2" type="matrix" values="0 0 0 0 0 0 0 0 0 0 0 0 0 0 0 0 0 0 .4 0"/><feOffset dx="4.0" dy="4.0" in="blurOut2" result="blurOut3"/><feBlend in="SourceGraphic" in2="blurOut3" mode="normal"/></filter></defs><g><rect fill="#FFFFFF" filter="url(#fk7sh80d69rg2)" height="221.0625" style="stroke: #000000; stroke-width: 2.0;" width="551" x="13" y="146.4297"/><line style="stroke: #A80036; stroke-width: 1.0; stroke-dasharray: 5.0,5.0;" x1="42" x2="42" y1="86.2969" y2="384.4922"/><line style="stroke: #A80036; stroke-width: 1.0; stroke-dasharray: 5.0,5.0;" x1="198.5" x2="198.5" y1="86.2969" y2="384.4922"/><line style="stroke: #A80036; stroke-width: 1.0; stroke-dasharray: 5.0,5.0;" x1="396.5" x2="396.5" y1="86.2969" y2="384.4922"/><line style="stroke: #A80036; stroke-width: 1.0; stroke-dasharray: 5.0,5.0;" x1="536" x2="536" y1="86.2969" y2="384.4922"/><text fill="#000000" font-family="sans-serif" font-size="14" lengthAdjust="spacingAndGlyphs" textLength="32" x="23" y="82.9951">User</text><ellipse cx="42" cy="13" fill="#FEFECE" filter="url(#fk7sh80d69rg2)" rx="8" ry="8" style="stroke: #A80036; stroke-width: 2.0;"/><path d="M42,21 L42,48 M29,29 L55,29 M42,48 L29,63 M42,48 L55,63 " fill="none" filter="url(#fk7sh80d69rg2)" style="stroke: #A80036; stroke-width: 2.0;"/><text fill="#000000" font-family="sans-serif" font-size="14" lengthAdjust="spacingAndGlyphs" textLength="32" x="23" y="396.4873">User</text><ellipse cx="42" cy="409.7891" fill="#FEFECE" filter="url(#fk7sh80d69rg2)" rx="8" ry="8" style="stroke: #A80036; stroke-width: 2.0;"/><path d="M42,417.7891 L42,444.7891 M29,425.7891 L55,425.7891 M42,444.7891 L29,459.7891 M42,444.7891 L55,459.7891 " fill="none" filter="url(#fk7sh80d69rg2)" style="stroke: #A80036; stroke-width: 2.0;"/><rect fill="#FEFECE" filter="url(#fk7sh80d69rg2)" height="30.2969" style="stroke: #A80036; stroke-width: 1.5;" width="71" x="163.5" y="47"/><rect fill="#FEFECE" filter="url(#fk7sh80d69rg2)" height="30.2969" style="stroke: #A80036; stroke-width: 1.5;" width="71" x="159.5" y="51"/><text fill="#000000" font-family="sans-serif" font-size="14" lengthAdjust="spacingAndGlyphs" textLength="57" x="166.5" y="70.9951">Browser</text><rect fill="#FEFECE" filter="url(#fk7sh80d69rg2)" height="30.2969" style="stroke: #A80036; stroke-width: 1.5;" width="71" x="163.5" y="383.4922"/><rect fill="#FEFECE" filter="url(#fk7sh80d69rg2)" height="30.2969" style="stroke: #A80036; stroke-width: 1.5;" width="71" x="159.5" y="387.4922"/><text fill="#000000" font-family="sans-serif" font-size="14" lengthAdjust="spacingAndGlyphs" textLength="57" x="166.5" y="407.4873">Browser</text><rect fill="#FEFECE" filter="url(#fk7sh80d69rg2)" height="30.2969" style="stroke: #A80036; stroke-width: 1.5;" width="75" x="359.5" y="47"/><rect fill="#FEFECE" filter="url(#fk7sh80d69rg2)" height="30.2969" style="stroke: #A80036; stroke-width: 1.5;" width="75" x="355.5" y="51"/><text fill="#000000" font-family="sans-serif" font-size="14" lengthAdjust="spacingAndGlyphs" textLength="61" x="362.5" y="70.9951">Backend</text><rect fill="#FEFECE" filter="url(#fk7sh80d69rg2)" height="30.2969" style="stroke: #A80036; stroke-width: 1.5;" width="75" x="359.5" y="383.4922"/><rect fill="#FEFECE" filter="url(#fk7sh80d69rg2)" height="30.2969" style="stroke: #A80036; stroke-width: 1.5;" width="75" x="355.5" y="387.4922"/><text fill="#000000" font-family="sans-serif" font-size="14" lengthAdjust="spacingAndGlyphs" textLength="61" x="362.5" y="407.4873">Backend</text><text fill="#000000" font-family="sans-serif" font-size="14" lengthAdjust="spacingAndGlyphs" textLength="21" x="522.5" y="82.9951">DB</text><path d="M518,34 C518,24 536,24 536,24 C536,24 554,24 554,34 L554,60 C554,70 536,70 536,70 C536,70 518,70 518,60 L518,34 " fill="#FEFECE" filter="url(#fk7sh80d69rg2)" style="stroke: #000000; stroke-width: 1.5;"/><path d="M518,34 C518,44 536,44 536,44 C536,44 554,44 554,34 " fill="none" style="stroke: #000000; stroke-width: 1.5;"/><text fill="#000000" font-family="sans-serif" font-size="14" lengthAdjust="spacingAndGlyphs" textLength="21" x="522.5" y="396.4873">DB</text><path d="M518,409.7891 C518,399.7891 536,399.7891 536,399.7891 C536,399.7891 554,399.7891 554,409.7891 L554,435.7891 C554,445.7891 536,445.7891 536,445.7891 C536,445.7891 518,445.7891 518,435.7891 L518,409.7891 " fill="#FEFECE" filter="url(#fk7sh80d69rg2)" style="stroke: #000000; stroke-width: 1.5;"/><path d="M518,409.7891 C518,419.7891 536,419.7891 536,419.7891 C536,419.7891 554,419.7891 554,409.7891 " fill="none" style="stroke: #000000; stroke-width: 1.5;"/><rect fill="#EEEEEE" filter="url(#fk7sh80d69rg2)" height="3" style="stroke: #EEEEEE; stroke-width: 1.0;" width="571" x="3" y="116.8633"/><line style="stroke: #000000; stroke-width: 1.0;" x1="3" x2="574" y1="116.8633" y2="116.8633"/><line style="stroke: #000000; stroke-width: 1.0;" x1="3" x2="574" y1="119.8633" y2="119.8633"/><rect fill="#EEEEEE" filter="url(#fk7sh80d69rg2)" height="23.1328" style="stroke: #000000; stroke-width: 2.0;" width="114" x="231.5" y="106.2969"/><text fill="#000000" font-family="sans-serif" font-size="13" font-weight="bold" lengthAdjust="spacingAndGlyphs" textLength="95" x="237.5" y="122.3638">Delete Order</text><path d="M13,146.4297 L181,146.4297 L181,153.4297 L171,163.4297 L13,163.4297 L13,146.4297 " fill="#EEEEEE" style="stroke: #000000; stroke-width: 1.0;"/><rect fill="none" height="221.0625" style="stroke: #000000; stroke-width: 2.0;" width="551" x="13" y="146.4297"/><text fill="#000000" font-family="sans-serif" font-size="13" font-weight="bold" lengthAdjust="spacingAndGlyphs" textLength="123" x="28" y="159.4966">from /order.html</text><polygon fill="#A80036" points="187,180.6953,197,184.6953,187,188.6953,191,184.6953" style="stroke: #A80036; stroke-width: 1.0;"/><line style="stroke: #A80036; stroke-width: 1.0;" x1="42" x2="193" y1="184.6953" y2="184.6953"/><text fill="#000000" font-family="sans-serif" font-size="13" lengthAdjust="spacingAndGlyphs" textLength="133" x="49" y="179.6294">click on Delete Order</text><polygon fill="#A80036" points="53,209.8281,43,213.8281,53,217.8281,49,213.8281" style="stroke: #A80036; stroke-width: 1.0;"/><line style="stroke: #A80036; stroke-width: 1.0;" x1="47" x2="198" y1="213.8281" y2="213.8281"/><text fill="#000000" font-family="sans-serif" font-size="13" lengthAdjust="spacingAndGlyphs" textLength="121" x="59" y="208.7622">alert Are you sure?</text><polygon fill="#A80036" points="187,238.9609,197,242.9609,187,246.9609,191,242.9609" style="stroke: #A80036; stroke-width: 1.0;"/><line style="stroke: #A80036; stroke-width: 1.0;" x1="42" x2="193" y1="242.9609" y2="242.9609"/><text fill="#000000" font-family="sans-serif" font-size="13" lengthAdjust="spacingAndGlyphs" textLength="22" x="49" y="237.895">yes</text><polygon fill="#A80036" points="385,268.0938,395,272.0938,385,276.0938,389,272.0938" style="stroke: #A80036; stroke-width: 1.0;"/><line style="stroke: #A80036; stroke-width: 1.0;" x1="199" x2="391" y1="272.0938" y2="272.0938"/><text fill="#000000" font-family="sans-serif" font-size="13" lengthAdjust="spacingAndGlyphs" textLength="174" x="206" y="267.0278">DELETE /delete_order/&lt;id&gt;</text><polygon fill="#A80036" points="524,297.2266,534,301.2266,524,305.2266,528,301.2266" style="stroke: #A80036; stroke-width: 1.0;"/><line style="stroke: #A80036; stroke-width: 1.0;" x1="397" x2="530" y1="301.2266" y2="301.2266"/><text fill="#000000" font-family="sans-serif" font-size="13" lengthAdjust="spacingAndGlyphs" textLength="115" x="404" y="296.1606">delete order &lt;id&gt;</text><polygon fill="#A80036" points="210,326.3594,200,330.3594,210,334.3594,206,330.3594" style="stroke: #A80036; stroke-width: 1.0;"/><line style="stroke: #A80036; stroke-width: 1.0;" x1="204" x2="396" y1="330.3594" y2="330.3594"/><text fill="#000000" font-family="sans-serif" font-size="13" lengthAdjust="spacingAndGlyphs" textLength="88" x="216" y="325.2935">/success.html</text><polygon fill="#A80036" points="53,355.4922,43,359.4922,53,363.4922,49,359.4922" style="stroke: #A80036; stroke-width: 1.0;"/><line style="stroke: #A80036; stroke-width: 1.0;" x1="47" x2="198" y1="359.4922" y2="359.4922"/><text fill="#000000" font-family="sans-serif" font-size="13" lengthAdjust="spacingAndGlyphs" textLength="88" x="59" y="354.4263">/success.html</text><!--MD5=[a30ed67e18defd179389f5ba276e4f59]
@startuml
actor User
collections Browser
collections Backend
database DB

== Delete Order ==
group from /order.html
User -> Browser : click on Delete Order
Browser -> User : alert Are you sure?
User -> Browser : yes
Browser -> Backend : DELETE /delete_order/<id>
Backend -> DB : delete order <id>
Backend -> Browser : /success.html
Browser -> User : /success.html
end
@enduml

PlantUML version 1.2019.11(Sun Sep 22 10:02:15 UTC 2019)
(GPL source distribution)
Java Runtime: Java(TM) SE Runtime Environment
JVM: Java HotSpot(TM) 64-Bit Server VM
Java Version: 1.7.0_25-b15
Operating System: Linux
Default Encoding: UTF-8
Language: en
Country: US
--></g></svg>