<?xml version="1.0" encoding="UTF-8" standalone="no"?><svg xmlns="http://www.w3.org/2000/svg" xmlns:xlink="http://www.w3.org/1999/xlink" contentScriptType="application/ecmascript" contentStyleType="text/css" height="411px" preserveAspectRatio="none" style="width:487px;height:411px;" version="1.1" viewBox="0 0 487 411" width="487px" zoomAndPan="magnify"><defs><filter height="300%" id="furildkpnmp1d" width="300%" x="-1" y="-1"><feGaussianBlur result="blurOut" stdDeviation="2.0"/><feColorMatrix in="blurOut" result="blurOut2" type="matrix" values="0 0 0 0 0 0 0 0 0 0 0 0 0 0 0 0 0 0 .4 0"/><feOffset dx="4.0" dy="4.0" in="blurOut2" result="blurOut3"/><feBlend in="SourceGraphic" in2="blurOut3" mode="normal"/></filter></defs><g><line style="stroke: #A80036; stroke-width: 1.0; stroke-dasharray: 5.0,5.0;" x1="27" x2="27" y1="86.2969" y2="324.2266"/><line style="stroke: #A80036; stroke-width: 1.0; stroke-dasharray: 5.0,5.0;" x1="222.5" x2="222.5" y1="86.2969" y2="324.2266"/><line style="stroke: #A80036; stroke-width: 1.0; stroke-dasharray: 5.0,5.0;" x1="346.5" x2="346.5" y1="86.2969" y2="324.2266"/><line style="stroke: #A80036; stroke-width: 1.0; stroke-dasharray: 5.0,5.0;" x1="452" x2="452" y1="86.2969" y2="324.2266"/><text fill="#000000" font-family="sans-serif" font-size="14" lengthAdjust="spacingAndGlyphs" textLength="32" x="8" y="82.9951">User</text><ellipse cx="27" cy="13" fill="#FEFECE" filter="url(#furildkpnmp1d)" rx="8" ry="8" style="stroke: #A80036; stroke-width: 2.0;"/><path d="M27,21 L27,48 M14,29 L40,29 M27,48 L14,63 M27,48 L40,63 " fill="none" filter="url(#furildkpnmp1d)" style="stroke: #A80036; stroke-width: 2.0;"/><text fill="#000000" font-family="sans-serif" font-size="14" lengthAdjust="spacingAndGlyphs" textLength="32" x="8" y="336.2217">User</text><ellipse cx="27" cy="349.5234" fill="#FEFECE" filter="url(#furildkpnmp1d)" rx="8" ry="8" style="stroke: #A80036; stroke-width: 2.0;"/><path d="M27,357.5234 L27,384.5234 M14,365.5234 L40,365.5234 M27,384.5234 L14,399.5234 M27,384.5234 L40,399.5234 " fill="none" filter="url(#furildkpnmp1d)" style="stroke: #A80036; stroke-width: 2.0;"/><rect fill="#FEFECE" filter="url(#furildkpnmp1d)" height="30.2969" style="stroke: #A80036; stroke-width: 1.5;" width="71" x="187.5" y="47"/><rect fill="#FEFECE" filter="url(#furildkpnmp1d)" height="30.2969" style="stroke: #A80036; stroke-width: 1.5;" width="71" x="183.5" y="51"/><text fill="#000000" font-family="sans-serif" font-size="14" lengthAdjust="spacingAndGlyphs" textLength="57" x="190.5" y="70.9951">Browser</text><rect fill="#FEFECE" filter="url(#furildkpnmp1d)" height="30.2969" style="stroke: #A80036; stroke-width: 1.5;" width="71" x="187.5" y="323.2266"/><rect fill="#FEFECE" filter="url(#furildkpnmp1d)" height="30.2969" style="stroke: #A80036; stroke-width: 1.5;" width="71" x="183.5" y="327.2266"/><text fill="#000000" font-family="sans-serif" font-size="14" lengthAdjust="spacingAndGlyphs" textLength="57" x="190.5" y="347.2217">Browser</text><rect fill="#FEFECE" filter="url(#furildkpnmp1d)" height="30.2969" style="stroke: #A80036; stroke-width: 1.5;" width="75" x="309.5" y="47"/><rect fill="#FEFECE" filter="url(#furildkpnmp1d)" height="30.2969" style="stroke: #A80036; stroke-width: 1.5;" width="75" x="305.5" y="51"/><text fill="#000000" font-family="sans-serif" font-size="14" lengthAdjust="spacingAndGlyphs" textLength="61" x="312.5" y="70.9951">Backend</text><rect fill="#FEFECE" filter="url(#furildkpnmp1d)" height="30.2969" style="stroke: #A80036; stroke-width: 1.5;" width="75" x="309.5" y="323.2266"/><rect fill="#FEFECE" filter="url(#furildkpnmp1d)" height="30.2969" style="stroke: #A80036; stroke-width: 1.5;" width="75" x="305.5" y="327.2266"/><text fill="#000000" font-family="sans-serif" font-size="14" lengthAdjust="spacingAndGlyphs" textLength="61" x="312.5" y="347.2217">Backend</text><text fill="#000000" font-family="sans-serif" font-size="14" lengthAdjust="spacingAndGlyphs" textLength="21" x="438.5" y="82.9951">DB</text><path d="M434,34 C434,24 452,24 452,24 C452,24 470,24 470,34 L470,60 C470,70 452,70 452,70 C452,70 434,70 434,60 L434,34 " fill="#FEFECE" filter="url(#furildkpnmp1d)" style="stroke: #000000; stroke-width: 1.5;"/><path d="M434,34 C434,44 452,44 452,44 C452,44 470,44 470,34 " fill="none" style="stroke: #000000; stroke-width: 1.5;"/><text fill="#000000" font-family="sans-serif" font-size="14" lengthAdjust="spacingAndGlyphs" textLength="21" x="438.5" y="336.2217">DB</text><path d="M434,349.5234 C434,339.5234 452,339.5234 452,339.5234 C452,339.5234 470,339.5234 470,349.5234 L470,375.5234 C470,385.5234 452,385.5234 452,385.5234 C452,385.5234 434,385.5234 434,375.5234 L434,349.5234 " fill="#FEFECE" filter="url(#furildkpnmp1d)" style="stroke: #000000; stroke-width: 1.5;"/><path d="M434,349.5234 C434,359.5234 452,359.5234 452,359.5234 C452,359.5234 470,359.5234 470,349.5234 " fill="none" style="stroke: #000000; stroke-width: 1.5;"/><rect fill="#EEEEEE" filter="url(#furildkpnmp1d)" height="3" style="stroke: #EEEEEE; stroke-width: 1.0;" width="472" x="3" y="116.8633"/><line style="stroke: #000000; stroke-width: 1.0;" x1="3" x2="475" y1="116.8633" y2="116.8633"/><line style="stroke: #000000; stroke-width: 1.0;" x1="3" x2="475" y1="119.8633" y2="119.8633"/><rect fill="#EEEEEE" filter="url(#furildkpnmp1d)" height="23.1328" style="stroke: #000000; stroke-width: 2.0;" width="121" x="178.5" y="106.2969"/><text fill="#000000" font-family="sans-serif" font-size="13" font-weight="bold" lengthAdjust="spacingAndGlyphs" textLength="102" x="184.5" y="122.3638">Landing Page</text><polygon fill="#A80036" points="211,156.5625,221,160.5625,211,164.5625,215,160.5625" style="stroke: #A80036; stroke-width: 1.0;"/><line style="stroke: #A80036; stroke-width: 1.0;" x1="27" x2="217" y1="160.5625" y2="160.5625"/><text fill="#000000" font-family="sans-serif" font-size="13" lengthAdjust="spacingAndGlyphs" textLength="71" x="34" y="155.4966">/index.html</text><polygon fill="#A80036" points="335,185.6953,345,189.6953,335,193.6953,339,189.6953" style="stroke: #A80036; stroke-width: 1.0;"/><line style="stroke: #A80036; stroke-width: 1.0;" x1="223" x2="341" y1="189.6953" y2="189.6953"/><text fill="#000000" font-family="sans-serif" font-size="13" lengthAdjust="spacingAndGlyphs" textLength="100" x="230" y="184.6294">GET /index.html</text><polygon fill="#A80036" points="440,214.8281,450,218.8281,440,222.8281,444,218.8281" style="stroke: #A80036; stroke-width: 1.0;"/><line style="stroke: #A80036; stroke-width: 1.0;" x1="347" x2="446" y1="218.8281" y2="218.8281"/><text fill="#000000" font-family="sans-serif" font-size="13" lengthAdjust="spacingAndGlyphs" textLength="81" x="354" y="213.7622">get order list</text><polygon fill="#A80036" points="358,243.9609,348,247.9609,358,251.9609,354,247.9609" style="stroke: #A80036; stroke-width: 1.0;"/><line style="stroke: #A80036; stroke-width: 1.0;" x1="352" x2="451" y1="247.9609" y2="247.9609"/><text fill="#000000" font-family="sans-serif" font-size="13" lengthAdjust="spacingAndGlyphs" textLength="56" x="364" y="242.895">order list</text><polygon fill="#A80036" points="234,273.0938,224,277.0938,234,281.0938,230,277.0938" style="stroke: #A80036; stroke-width: 1.0;"/><line style="stroke: #A80036; stroke-width: 1.0;" x1="228" x2="346" y1="277.0938" y2="277.0938"/><text fill="#000000" font-family="sans-serif" font-size="13" lengthAdjust="spacingAndGlyphs" textLength="71" x="240" y="272.0278">/index.html</text><polygon fill="#A80036" points="38,302.2266,28,306.2266,38,310.2266,34,306.2266" style="stroke: #A80036; stroke-width: 1.0;"/><line style="stroke: #A80036; stroke-width: 1.0;" x1="32" x2="222" y1="306.2266" y2="306.2266"/><text fill="#000000" font-family="sans-serif" font-size="13" lengthAdjust="spacingAndGlyphs" textLength="172" x="44" y="301.1606">(list orders, and new order)</text><!--MD5=[a88c4635f2cb7714029d55d3f20b3cb2]
@startuml
actor User
collections Browser
collections Backend
database DB

== Landing Page ==

User -> Browser : /index.html
Browser -> Backend : GET /index.html
Backend -> DB : get order list
DB -> Backend : order list
Backend -> Browser : /index.html
Browser -> User : (list orders, and new order)
@enduml

PlantUML version 1.2019.12beta6(Unknown compile time)
(GPL source distribution)
Java Runtime: Java(TM) SE Runtime Environment
JVM: Java HotSpot(TM) 64-Bit Server VM
Java Version: 1.7.0_25-b15
Operating System: Linux
Default Encoding: UTF-8
Language: en
Country: US
--></g></svg>