<?xml version="1.0" encoding="UTF-8" standalone="no"?><svg xmlns="http://www.w3.org/2000/svg" xmlns:xlink="http://www.w3.org/1999/xlink" contentScriptType="application/ecmascript" contentStyleType="text/css" height="651px" preserveAspectRatio="none" style="width:652px;height:651px;" version="1.1" viewBox="0 0 652 651" width="652px" zoomAndPan="magnify"><defs><filter height="300%" id="fm3ivvmfomnzk" width="300%" x="-1" y="-1"><feGaussianBlur result="blurOut" stdDeviation="2.0"/><feColorMatrix in="blurOut" result="blurOut2" type="matrix" values="0 0 0 0 0 0 0 0 0 0 0 0 0 0 0 0 0 0 .4 0"/><feOffset dx="4.0" dy="4.0" in="blurOut2" result="blurOut3"/><feBlend in="SourceGraphic" in2="blurOut3" mode="normal"/></filter></defs><g><rect fill="#FFFFFF" filter="url(#fm3ivvmfomnzk)" height="443.7969" style="stroke: #000000; stroke-width: 2.0;" width="628" x="13" y="103.2969"/><rect fill="#FFFFFF" filter="url(#fm3ivvmfomnzk)" height="179.6016" style="stroke: #000000; stroke-width: 2.0;" width="290.5" x="23" y="243.9609"/><rect fill="#FFFFFF" filter="url(#fm3ivvmfomnzk)" height="148.4688" style="stroke: #000000; stroke-width: 2.0;" width="270.5" x="33" y="268.0938"/><rect fill="#FFFFFF" height="73.0703" style="stroke: none; stroke-width: 1.0;" width="270.5" x="33" y="343.4922"/><line style="stroke: #A80036; stroke-width: 1.0; stroke-dasharray: 5.0,5.0;" x1="62" x2="62" y1="86.2969" y2="564.0938"/><line style="stroke: #A80036; stroke-width: 1.0; stroke-dasharray: 5.0,5.0;" x1="253.5" x2="253.5" y1="86.2969" y2="564.0938"/><line style="stroke: #A80036; stroke-width: 1.0; stroke-dasharray: 5.0,5.0;" x1="468.5" x2="468.5" y1="86.2969" y2="564.0938"/><line style="stroke: #A80036; stroke-width: 1.0; stroke-dasharray: 5.0,5.0;" x1="613" x2="613" y1="86.2969" y2="564.0938"/><text fill="#000000" font-family="sans-serif" font-size="14" lengthAdjust="spacingAndGlyphs" textLength="32" x="43" y="82.9951">User</text><ellipse cx="62" cy="13" fill="#FEFECE" filter="url(#fm3ivvmfomnzk)" rx="8" ry="8" style="stroke: #A80036; stroke-width: 2.0;"/><path d="M62,21 L62,48 M49,29 L75,29 M62,48 L49,63 M62,48 L75,63 " fill="none" filter="url(#fm3ivvmfomnzk)" style="stroke: #A80036; stroke-width: 2.0;"/><text fill="#000000" font-family="sans-serif" font-size="14" lengthAdjust="spacingAndGlyphs" textLength="32" x="43" y="576.0889">User</text><ellipse cx="62" cy="589.3906" fill="#FEFECE" filter="url(#fm3ivvmfomnzk)" rx="8" ry="8" style="stroke: #A80036; stroke-width: 2.0;"/><path d="M62,597.3906 L62,624.3906 M49,605.3906 L75,605.3906 M62,624.3906 L49,639.3906 M62,624.3906 L75,639.3906 " fill="none" filter="url(#fm3ivvmfomnzk)" style="stroke: #A80036; stroke-width: 2.0;"/><rect fill="#FEFECE" filter="url(#fm3ivvmfomnzk)" height="30.2969" style="stroke: #A80036; stroke-width: 1.5;" width="71" x="218.5" y="47"/><rect fill="#FEFECE" filter="url(#fm3ivvmfomnzk)" height="30.2969" style="stroke: #A80036; stroke-width: 1.5;" width="71" x="214.5" y="51"/><text fill="#000000" font-family="sans-serif" font-size="14" lengthAdjust="spacingAndGlyphs" textLength="57" x="221.5" y="70.9951">Browser</text><rect fill="#FEFECE" filter="url(#fm3ivvmfomnzk)" height="30.2969" style="stroke: #A80036; stroke-width: 1.5;" width="71" x="218.5" y="563.0938"/><rect fill="#FEFECE" filter="url(#fm3ivvmfomnzk)" height="30.2969" style="stroke: #A80036; stroke-width: 1.5;" width="71" x="214.5" y="567.0938"/><text fill="#000000" font-family="sans-serif" font-size="14" lengthAdjust="spacingAndGlyphs" textLength="57" x="221.5" y="587.0889">Browser</text><rect fill="#FEFECE" filter="url(#fm3ivvmfomnzk)" height="30.2969" style="stroke: #A80036; stroke-width: 1.5;" width="75" x="431.5" y="47"/><rect fill="#FEFECE" filter="url(#fm3ivvmfomnzk)" height="30.2969" style="stroke: #A80036; stroke-width: 1.5;" width="75" x="427.5" y="51"/><text fill="#000000" font-family="sans-serif" font-size="14" lengthAdjust="spacingAndGlyphs" textLength="61" x="434.5" y="70.9951">Backend</text><rect fill="#FEFECE" filter="url(#fm3ivvmfomnzk)" height="30.2969" style="stroke: #A80036; stroke-width: 1.5;" width="75" x="431.5" y="563.0938"/><rect fill="#FEFECE" filter="url(#fm3ivvmfomnzk)" height="30.2969" style="stroke: #A80036; stroke-width: 1.5;" width="75" x="427.5" y="567.0938"/><text fill="#000000" font-family="sans-serif" font-size="14" lengthAdjust="spacingAndGlyphs" textLength="61" x="434.5" y="587.0889">Backend</text><text fill="#000000" font-family="sans-serif" font-size="14" lengthAdjust="spacingAndGlyphs" textLength="21" x="599.5" y="82.9951">DB</text><path d="M595,34 C595,24 613,24 613,24 C613,24 631,24 631,34 L631,60 C631,70 613,70 613,70 C613,70 595,70 595,60 L595,34 " fill="#FEFECE" filter="url(#fm3ivvmfomnzk)" style="stroke: #000000; stroke-width: 1.5;"/><path d="M595,34 C595,44 613,44 613,44 C613,44 631,44 631,34 " fill="none" style="stroke: #000000; stroke-width: 1.5;"/><text fill="#000000" font-family="sans-serif" font-size="14" lengthAdjust="spacingAndGlyphs" textLength="21" x="599.5" y="576.0889">DB</text><path d="M595,589.3906 C595,579.3906 613,579.3906 613,579.3906 C613,579.3906 631,579.3906 631,589.3906 L631,615.3906 C631,625.3906 613,625.3906 613,625.3906 C613,625.3906 595,625.3906 595,615.3906 L595,589.3906 " fill="#FEFECE" filter="url(#fm3ivvmfomnzk)" style="stroke: #000000; stroke-width: 1.5;"/><path d="M595,589.3906 C595,599.3906 613,599.3906 613,599.3906 C613,599.3906 631,599.3906 631,589.3906 " fill="none" style="stroke: #000000; stroke-width: 1.5;"/><path d="M13,103.2969 L181,103.2969 L181,110.2969 L171,120.2969 L13,120.2969 L13,103.2969 " fill="#EEEEEE" style="stroke: #000000; stroke-width: 1.0;"/><rect fill="none" height="443.7969" style="stroke: #000000; stroke-width: 2.0;" width="628" x="13" y="103.2969"/><text fill="#000000" font-family="sans-serif" font-size="13" font-weight="bold" lengthAdjust="spacingAndGlyphs" textLength="123" x="28" y="116.3638">from /order.html</text><polygon fill="#A80036" points="242,137.5625,252,141.5625,242,145.5625,246,141.5625" style="stroke: #A80036; stroke-width: 1.0;"/><line style="stroke: #A80036; stroke-width: 1.0;" x1="62" x2="248" y1="141.5625" y2="141.5625"/><text fill="#000000" font-family="sans-serif" font-size="13" lengthAdjust="spacingAndGlyphs" textLength="132" x="69" y="136.4966">click on Modify Order</text><polygon fill="#A80036" points="457,166.6953,467,170.6953,457,174.6953,461,170.6953" style="stroke: #A80036; stroke-width: 1.0;"/><line style="stroke: #A80036; stroke-width: 1.0;" x1="254" x2="463" y1="170.6953" y2="170.6953"/><text fill="#000000" font-family="sans-serif" font-size="13" lengthAdjust="spacingAndGlyphs" textLength="191" x="261" y="165.6294">GET /modify_order_form/&lt;id&gt;</text><polygon fill="#A80036" points="265,195.8281,255,199.8281,265,203.8281,261,199.8281" style="stroke: #A80036; stroke-width: 1.0;"/><line style="stroke: #A80036; stroke-width: 1.0;" x1="259" x2="468" y1="199.8281" y2="199.8281"/><text fill="#000000" font-family="sans-serif" font-size="13" lengthAdjust="spacingAndGlyphs" textLength="191" x="271" y="194.7622">check_items_order_form.html</text><polygon fill="#A80036" points="73,224.9609,63,228.9609,73,232.9609,69,228.9609" style="stroke: #A80036; stroke-width: 1.0;"/><line style="stroke: #A80036; stroke-width: 1.0;" x1="67" x2="253" y1="228.9609" y2="228.9609"/><text fill="#000000" font-family="sans-serif" font-size="13" lengthAdjust="spacingAndGlyphs" textLength="151" x="79" y="223.895">Adding/Removing items</text><path d="M23,243.9609 L100,243.9609 L100,250.9609 L90,260.9609 L23,260.9609 L23,243.9609 " fill="#EEEEEE" style="stroke: #000000; stroke-width: 1.0;"/><rect fill="none" height="179.6016" style="stroke: #000000; stroke-width: 2.0;" width="290.5" x="23" y="243.9609"/><text fill="#000000" font-family="sans-serif" font-size="13" font-weight="bold" lengthAdjust="spacingAndGlyphs" textLength="32" x="38" y="257.0278">loop</text><text fill="#000000" font-family="sans-serif" font-size="11" font-weight="bold" lengthAdjust="spacingAndGlyphs" textLength="57" x="115" y="256.1714">[n times]</text><path d="M33,268.0938 L97,268.0938 L97,275.0938 L87,285.0938 L33,285.0938 L33,268.0938 " fill="#EEEEEE" style="stroke: #000000; stroke-width: 1.0;"/><rect fill="none" height="148.4688" style="stroke: #000000; stroke-width: 2.0;" width="270.5" x="33" y="268.0938"/><text fill="#000000" font-family="sans-serif" font-size="13" font-weight="bold" lengthAdjust="spacingAndGlyphs" textLength="19" x="48" y="281.1606">alt</text><text fill="#000000" font-family="sans-serif" font-size="11" font-weight="bold" lengthAdjust="spacingAndGlyphs" textLength="83" x="112" y="280.3042">[delete item]</text><polygon fill="#A80036" points="242,302.3594,252,306.3594,242,310.3594,246,306.3594" style="stroke: #A80036; stroke-width: 1.0;"/><line style="stroke: #A80036; stroke-width: 1.0;" x1="62" x2="248" y1="306.3594" y2="306.3594"/><text fill="#000000" font-family="sans-serif" font-size="13" lengthAdjust="spacingAndGlyphs" textLength="150" x="69" y="301.2935">click item delete button</text><polygon fill="#A80036" points="73,331.4922,63,335.4922,73,339.4922,69,335.4922" style="stroke: #A80036; stroke-width: 1.0;"/><line style="stroke: #A80036; stroke-width: 1.0;" x1="67" x2="253" y1="335.4922" y2="335.4922"/><text fill="#000000" font-family="sans-serif" font-size="13" lengthAdjust="spacingAndGlyphs" textLength="95" x="79" y="330.4263">item is deleted</text><line style="stroke: #000000; stroke-width: 1.0; stroke-dasharray: 2.0,2.0;" x1="33" x2="303.5" y1="344.4922" y2="344.4922"/><text fill="#000000" font-family="sans-serif" font-size="11" font-weight="bold" lengthAdjust="spacingAndGlyphs" textLength="66" x="38" y="354.7026">[add item]</text><polygon fill="#A80036" points="242,375.4297,252,379.4297,242,383.4297,246,379.4297" style="stroke: #A80036; stroke-width: 1.0;"/><line style="stroke: #A80036; stroke-width: 1.0;" x1="62" x2="248" y1="379.4297" y2="379.4297"/><text fill="#000000" font-family="sans-serif" font-size="13" lengthAdjust="spacingAndGlyphs" textLength="164" x="69" y="374.3638">click Add new item button</text><polygon fill="#A80036" points="73,404.5625,63,408.5625,73,412.5625,69,408.5625" style="stroke: #A80036; stroke-width: 1.0;"/><line style="stroke: #A80036; stroke-width: 1.0;" x1="67" x2="253" y1="408.5625" y2="408.5625"/><text fill="#000000" font-family="sans-serif" font-size="13" lengthAdjust="spacingAndGlyphs" textLength="168" x="79" y="403.4966">show a new input text field</text><polygon fill="#A80036" points="242,447.6953,252,451.6953,242,455.6953,246,451.6953" style="stroke: #A80036; stroke-width: 1.0;"/><line style="stroke: #A80036; stroke-width: 1.0;" x1="62" x2="248" y1="451.6953" y2="451.6953"/><text fill="#000000" font-family="sans-serif" font-size="13" lengthAdjust="spacingAndGlyphs" textLength="83" x="69" y="446.6294">click on Save</text><polygon fill="#A80036" points="457,476.8281,467,480.8281,457,484.8281,461,480.8281" style="stroke: #A80036; stroke-width: 1.0;"/><line style="stroke: #A80036; stroke-width: 1.0;" x1="254" x2="463" y1="480.8281" y2="480.8281"/><text fill="#000000" font-family="sans-serif" font-size="13" lengthAdjust="spacingAndGlyphs" textLength="163" x="261" y="475.7622">POST /modify_order/&lt;id&gt;</text><polygon fill="#A80036" points="601,505.9609,611,509.9609,601,513.9609,605,509.9609" style="stroke: #A80036; stroke-width: 1.0;"/><line style="stroke: #A80036; stroke-width: 1.0;" x1="469" x2="607" y1="509.9609" y2="509.9609"/><text fill="#000000" font-family="sans-serif" font-size="13" lengthAdjust="spacingAndGlyphs" textLength="120" x="476" y="504.895">update order &lt;id&gt;</text><polygon fill="#A80036" points="265,535.0938,255,539.0938,265,543.0938,261,539.0938" style="stroke: #A80036; stroke-width: 1.0;"/><line style="stroke: #A80036; stroke-width: 1.0;" x1="259" x2="468" y1="539.0938" y2="539.0938"/><text fill="#000000" font-family="sans-serif" font-size="13" lengthAdjust="spacingAndGlyphs" textLength="170" x="271" y="534.0278">Redirect /show_order/&lt;id&gt;</text><!--MD5=[317f8bb42a1a3a76a2d0ee8b3d0399d6]
@startuml
actor User
collections Browser
collections Backend
database DB



group from /order.html
User -> Browser : click on Modify Order
Browser -> Backend: GET /modify_order_form/<id>
Backend -> Browser : check_items_order_form.html
Browser -> User : Adding/Removing items
loop n times
  alt delete item
      User -> Browser : click item delete button
      Browser -> User : item is deleted
  else add item
      User -> Browser : click Add new item button
      Browser -> User : show a new input text field
  end
end

User -> Browser : click on Save
Browser -> Backend : POST /modify_order/<id>
Backend -> DB : update order <id>
Backend -> Browser : Redirect /show_order/<id>
end
@enduml

PlantUML version 1.2019.12beta6(Unknown compile time)
(GPL source distribution)
Java Runtime: Java(TM) SE Runtime Environment
JVM: Java HotSpot(TM) 64-Bit Server VM
Java Version: 1.7.0_25-b15
Operating System: Linux
Default Encoding: UTF-8
Language: en
Country: US
--></g></svg>