<?xml version="1.0" encoding="UTF-8" standalone="no"?><svg xmlns="http://www.w3.org/2000/svg" xmlns:xlink="http://www.w3.org/1999/xlink" contentScriptType="application/ecmascript" contentStyleType="text/css" height="675px" preserveAspectRatio="none" style="width:631px;height:675px;" version="1.1" viewBox="0 0 631 675" width="631px" zoomAndPan="magnify"><defs><filter height="300%" id="fx0hpniy14yod" width="300%" x="-1" y="-1"><feGaussianBlur result="blurOut" stdDeviation="2.0"/><feColorMatrix in="blurOut" result="blurOut2" type="matrix" values="0 0 0 0 0 0 0 0 0 0 0 0 0 0 0 0 0 0 .4 0"/><feOffset dx="4.0" dy="4.0" in="blurOut2" result="blurOut3"/><feBlend in="SourceGraphic" in2="blurOut3" mode="normal"/></filter></defs><g><rect fill="#FFFFFF" filter="url(#fx0hpniy14yod)" height="133.6641" style="stroke: #000000; stroke-width: 2.0;" width="270.5" x="13" y="292.0938"/><line style="stroke: #A80036; stroke-width: 1.0; stroke-dasharray: 5.0,5.0;" x1="42" x2="42" y1="86.2969" y2="588.4219"/><line style="stroke: #A80036; stroke-width: 1.0; stroke-dasharray: 5.0,5.0;" x1="233.5" x2="233.5" y1="86.2969" y2="588.4219"/><line style="stroke: #A80036; stroke-width: 1.0; stroke-dasharray: 5.0,5.0;" x1="426.5" x2="426.5" y1="86.2969" y2="588.4219"/><line style="stroke: #A80036; stroke-width: 1.0; stroke-dasharray: 5.0,5.0;" x1="596" x2="596" y1="86.2969" y2="588.4219"/><text fill="#000000" font-family="sans-serif" font-size="14" lengthAdjust="spacingAndGlyphs" textLength="32" x="23" y="82.9951">User</text><ellipse cx="42" cy="13" fill="#FEFECE" filter="url(#fx0hpniy14yod)" rx="8" ry="8" style="stroke: #A80036; stroke-width: 2.0;"/><path d="M42,21 L42,48 M29,29 L55,29 M42,48 L29,63 M42,48 L55,63 " fill="none" filter="url(#fx0hpniy14yod)" style="stroke: #A80036; stroke-width: 2.0;"/><text fill="#000000" font-family="sans-serif" font-size="14" lengthAdjust="spacingAndGlyphs" textLength="32" x="23" y="600.417">User</text><ellipse cx="42" cy="613.7188" fill="#FEFECE" filter="url(#fx0hpniy14yod)" rx="8" ry="8" style="stroke: #A80036; stroke-width: 2.0;"/><path d="M42,621.7188 L42,648.7188 M29,629.7188 L55,629.7188 M42,648.7188 L29,663.7188 M42,648.7188 L55,663.7188 " fill="none" filter="url(#fx0hpniy14yod)" style="stroke: #A80036; stroke-width: 2.0;"/><rect fill="#FEFECE" filter="url(#fx0hpniy14yod)" height="30.2969" style="stroke: #A80036; stroke-width: 1.5;" width="71" x="198.5" y="47"/><rect fill="#FEFECE" filter="url(#fx0hpniy14yod)" height="30.2969" style="stroke: #A80036; stroke-width: 1.5;" width="71" x="194.5" y="51"/><text fill="#000000" font-family="sans-serif" font-size="14" lengthAdjust="spacingAndGlyphs" textLength="57" x="201.5" y="70.9951">Browser</text><rect fill="#FEFECE" filter="url(#fx0hpniy14yod)" height="30.2969" style="stroke: #A80036; stroke-width: 1.5;" width="71" x="198.5" y="587.4219"/><rect fill="#FEFECE" filter="url(#fx0hpniy14yod)" height="30.2969" style="stroke: #A80036; stroke-width: 1.5;" width="71" x="194.5" y="591.4219"/><text fill="#000000" font-family="sans-serif" font-size="14" lengthAdjust="spacingAndGlyphs" textLength="57" x="201.5" y="611.417">Browser</text><rect fill="#FEFECE" filter="url(#fx0hpniy14yod)" height="30.2969" style="stroke: #A80036; stroke-width: 1.5;" width="75" x="389.5" y="47"/><rect fill="#FEFECE" filter="url(#fx0hpniy14yod)" height="30.2969" style="stroke: #A80036; stroke-width: 1.5;" width="75" x="385.5" y="51"/><text fill="#000000" font-family="sans-serif" font-size="14" lengthAdjust="spacingAndGlyphs" textLength="61" x="392.5" y="70.9951">Backend</text><rect fill="#FEFECE" filter="url(#fx0hpniy14yod)" height="30.2969" style="stroke: #A80036; stroke-width: 1.5;" width="75" x="389.5" y="587.4219"/><rect fill="#FEFECE" filter="url(#fx0hpniy14yod)" height="30.2969" style="stroke: #A80036; stroke-width: 1.5;" width="75" x="385.5" y="591.4219"/><text fill="#000000" font-family="sans-serif" font-size="14" lengthAdjust="spacingAndGlyphs" textLength="61" x="392.5" y="611.417">Backend</text><text fill="#000000" font-family="sans-serif" font-size="14" lengthAdjust="spacingAndGlyphs" textLength="21" x="582.5" y="82.9951">DB</text><path d="M578,34 C578,24 596,24 596,24 C596,24 614,24 614,34 L614,60 C614,70 596,70 596,70 C596,70 578,70 578,60 L578,34 " fill="#FEFECE" filter="url(#fx0hpniy14yod)" style="stroke: #000000; stroke-width: 1.5;"/><path d="M578,34 C578,44 596,44 596,44 C596,44 614,44 614,34 " fill="none" style="stroke: #000000; stroke-width: 1.5;"/><text fill="#000000" font-family="sans-serif" font-size="14" lengthAdjust="spacingAndGlyphs" textLength="21" x="582.5" y="600.417">DB</text><path d="M578,613.7188 C578,603.7188 596,603.7188 596,603.7188 C596,603.7188 614,603.7188 614,613.7188 L614,639.7188 C614,649.7188 596,649.7188 596,649.7188 C596,649.7188 578,649.7188 578,639.7188 L578,613.7188 " fill="#FEFECE" filter="url(#fx0hpniy14yod)" style="stroke: #000000; stroke-width: 1.5;"/><path d="M578,613.7188 C578,623.7188 596,623.7188 596,623.7188 C596,623.7188 614,623.7188 614,613.7188 " fill="none" style="stroke: #000000; stroke-width: 1.5;"/><rect fill="#EEEEEE" filter="url(#fx0hpniy14yod)" height="3" style="stroke: #EEEEEE; stroke-width: 1.0;" width="616" x="3" y="116.8633"/><line style="stroke: #000000; stroke-width: 1.0;" x1="3" x2="619" y1="116.8633" y2="116.8633"/><line style="stroke: #000000; stroke-width: 1.0;" x1="3" x2="619" y1="119.8633" y2="119.8633"/><rect fill="#EEEEEE" filter="url(#fx0hpniy14yod)" height="23.1328" style="stroke: #000000; stroke-width: 2.0;" width="98" x="262" y="106.2969"/><text fill="#000000" font-family="sans-serif" font-size="13" font-weight="bold" lengthAdjust="spacingAndGlyphs" textLength="79" x="268" y="122.3638">New Order</text><polygon fill="#A80036" points="222,156.5625,232,160.5625,222,164.5625,226,160.5625" style="stroke: #A80036; stroke-width: 1.0;"/><line style="stroke: #A80036; stroke-width: 1.0;" x1="42" x2="228" y1="160.5625" y2="160.5625"/><text fill="#000000" font-family="sans-serif" font-size="13" lengthAdjust="spacingAndGlyphs" textLength="116" x="49" y="155.4966">Click on new order</text><polygon fill="#A80036" points="415,185.6953,425,189.6953,415,193.6953,419,189.6953" style="stroke: #A80036; stroke-width: 1.0;"/><line style="stroke: #A80036; stroke-width: 1.0;" x1="234" x2="421" y1="189.6953" y2="189.6953"/><text fill="#000000" font-family="sans-serif" font-size="13" lengthAdjust="spacingAndGlyphs" textLength="169" x="241" y="184.6294">GET /new_order_form.html</text><polygon fill="#A80036" points="245,214.8281,235,218.8281,245,222.8281,241,218.8281" style="stroke: #A80036; stroke-width: 1.0;"/><line style="stroke: #A80036; stroke-width: 1.0;" x1="239" x2="426" y1="218.8281" y2="218.8281"/><text fill="#000000" font-family="sans-serif" font-size="13" lengthAdjust="spacingAndGlyphs" textLength="140" x="251" y="213.7622">/new_order_form.html</text><polygon fill="#A80036" points="53,243.9609,43,247.9609,53,251.9609,49,247.9609" style="stroke: #A80036; stroke-width: 1.0;"/><line style="stroke: #A80036; stroke-width: 1.0;" x1="47" x2="233" y1="247.9609" y2="247.9609"/><text fill="#000000" font-family="sans-serif" font-size="13" lengthAdjust="spacingAndGlyphs" textLength="61" x="59" y="242.895">formulary</text><polygon fill="#A80036" points="222,273.0938,232,277.0938,222,281.0938,226,277.0938" style="stroke: #A80036; stroke-width: 1.0;"/><line style="stroke: #A80036; stroke-width: 1.0;" x1="42" x2="228" y1="277.0938" y2="277.0938"/><text fill="#000000" font-family="sans-serif" font-size="13" lengthAdjust="spacingAndGlyphs" textLength="94" x="49" y="272.0278">enters the title</text><path d="M13,292.0938 L90,292.0938 L90,299.0938 L80,309.0938 L13,309.0938 L13,292.0938 " fill="#EEEEEE" style="stroke: #000000; stroke-width: 1.0;"/><rect fill="none" height="133.6641" style="stroke: #000000; stroke-width: 2.0;" width="270.5" x="13" y="292.0938"/><text fill="#000000" font-family="sans-serif" font-size="13" font-weight="bold" lengthAdjust="spacingAndGlyphs" textLength="32" x="28" y="305.1606">loop</text><text fill="#000000" font-family="sans-serif" font-size="11" font-weight="bold" lengthAdjust="spacingAndGlyphs" textLength="57" x="105" y="304.3042">[n times]</text><polygon fill="#A80036" points="222,326.3594,232,330.3594,222,334.3594,226,330.3594" style="stroke: #A80036; stroke-width: 1.0;"/><line style="stroke: #A80036; stroke-width: 1.0;" x1="42" x2="228" y1="330.3594" y2="330.3594"/><text fill="#000000" font-family="sans-serif" font-size="13" lengthAdjust="spacingAndGlyphs" textLength="103" x="49" y="325.2935">Add text of item</text><polygon fill="#A80036" points="53,355.4922,43,359.4922,53,363.4922,49,359.4922" style="stroke: #A80036; stroke-width: 1.0;"/><line style="stroke: #A80036; stroke-width: 1.0;" x1="47" x2="233" y1="359.4922" y2="359.4922"/><text fill="#000000" font-family="sans-serif" font-size="13" lengthAdjust="spacingAndGlyphs" textLength="114" x="59" y="354.4263">show item in a list</text><polygon fill="#A80036" points="222,384.625,232,388.625,222,392.625,226,388.625" style="stroke: #A80036; stroke-width: 1.0;"/><line style="stroke: #A80036; stroke-width: 1.0;" x1="42" x2="228" y1="388.625" y2="388.625"/><text fill="#000000" font-family="sans-serif" font-size="13" lengthAdjust="spacingAndGlyphs" textLength="164" x="49" y="383.5591">click Add new item button</text><polygon fill="#A80036" points="53,413.7578,43,417.7578,53,421.7578,49,417.7578" style="stroke: #A80036; stroke-width: 1.0;"/><line style="stroke: #A80036; stroke-width: 1.0;" x1="47" x2="233" y1="417.7578" y2="417.7578"/><text fill="#000000" font-family="sans-serif" font-size="13" lengthAdjust="spacingAndGlyphs" textLength="168" x="59" y="412.6919">show a new input text field</text><polygon fill="#A80036" points="222,449.8906,232,453.8906,222,457.8906,226,453.8906" style="stroke: #A80036; stroke-width: 1.0;"/><line style="stroke: #A80036; stroke-width: 1.0;" x1="42" x2="228" y1="453.8906" y2="453.8906"/><text fill="#000000" font-family="sans-serif" font-size="13" lengthAdjust="spacingAndGlyphs" textLength="62" x="49" y="448.8247">click send</text><polygon fill="#A80036" points="415,479.0234,425,483.0234,415,487.0234,419,483.0234" style="stroke: #A80036; stroke-width: 1.0;"/><line style="stroke: #A80036; stroke-width: 1.0;" x1="234" x2="421" y1="483.0234" y2="483.0234"/><text fill="#000000" font-family="sans-serif" font-size="13" lengthAdjust="spacingAndGlyphs" textLength="157" x="241" y="477.9575">POST /create_order.html</text><polygon fill="#A80036" points="584,508.1563,594,512.1563,584,516.1563,588,512.1563" style="stroke: #A80036; stroke-width: 1.0;"/><line style="stroke: #A80036; stroke-width: 1.0;" x1="427" x2="590" y1="512.1563" y2="512.1563"/><text fill="#000000" font-family="sans-serif" font-size="13" lengthAdjust="spacingAndGlyphs" textLength="145" x="434" y="507.0903">create new order entry</text><polygon fill="#A80036" points="245,537.2891,235,541.2891,245,545.2891,241,541.2891" style="stroke: #A80036; stroke-width: 1.0;"/><line style="stroke: #A80036; stroke-width: 1.0;" x1="239" x2="426" y1="541.2891" y2="541.2891"/><text fill="#000000" font-family="sans-serif" font-size="13" lengthAdjust="spacingAndGlyphs" textLength="88" x="251" y="536.2231">/success.html</text><polygon fill="#A80036" points="53,566.4219,43,570.4219,53,574.4219,49,570.4219" style="stroke: #A80036; stroke-width: 1.0;"/><line style="stroke: #A80036; stroke-width: 1.0;" x1="47" x2="233" y1="570.4219" y2="570.4219"/><text fill="#000000" font-family="sans-serif" font-size="13" lengthAdjust="spacingAndGlyphs" textLength="88" x="59" y="565.356">/success.html</text><!--MD5=[b00a5e288ed5f6bf063c19762fd3529f]
@startuml
actor User
collections Browser
collections Backend
database DB

== New Order ==
User -> Browser : Click on new order
Browser -> Backend : GET /new_order_form.html
Backend -> Browser : /new_order_form.html
Browser -> User : formulary
User -> Browser : enters the title

loop n times
  User -> Browser : Add text of item
  Browser -> User : show item in a list
  User -> Browser : click Add new item button
  Browser -> User : show a new input text field
end

User -> Browser : click send
Browser -> Backend : POST /create_order.html
Backend -> DB : create new order entry
Backend -> Browser : /success.html
Browser -> User : /success.html
@enduml

PlantUML version 1.2019.12beta6(Unknown compile time)
(GPL source distribution)
Java Runtime: Java(TM) SE Runtime Environment
JVM: Java HotSpot(TM) 64-Bit Server VM
Java Version: 1.7.0_25-b15
Operating System: Linux
Default Encoding: UTF-8
Language: en
Country: US
--></g></svg>