<?xml version="1.0" encoding="UTF-8" standalone="no"?><svg xmlns="http://www.w3.org/2000/svg" xmlns:xlink="http://www.w3.org/1999/xlink" contentScriptType="application/ecmascript" contentStyleType="text/css" height="411px" preserveAspectRatio="none" style="width:572px;height:411px;" version="1.1" viewBox="0 0 572 411" width="572px" zoomAndPan="magnify"><defs><filter height="300%" id="f1l5dgvq3cgupm" width="300%" x="-1" y="-1"><feGaussianBlur result="blurOut" stdDeviation="2.0"/><feColorMatrix in="blurOut" result="blurOut2" type="matrix" values="0 0 0 0 0 0 0 0 0 0 0 0 0 0 0 0 0 0 .4 0"/><feOffset dx="4.0" dy="4.0" in="blurOut2" result="blurOut3"/><feBlend in="SourceGraphic" in2="blurOut3" mode="normal"/></filter></defs><g><line style="stroke: #A80036; stroke-width: 1.0; stroke-dasharray: 5.0,5.0;" x1="27" x2="27" y1="86.2969" y2="324.2266"/><line style="stroke: #A80036; stroke-width: 1.0; stroke-dasharray: 5.0,5.0;" x1="220.5" x2="220.5" y1="86.2969" y2="324.2266"/><line style="stroke: #A80036; stroke-width: 1.0; stroke-dasharray: 5.0,5.0;" x1="387.5" x2="387.5" y1="86.2969" y2="324.2266"/><line style="stroke: #A80036; stroke-width: 1.0; stroke-dasharray: 5.0,5.0;" x1="537" x2="537" y1="86.2969" y2="324.2266"/><text fill="#000000" font-family="sans-serif" font-size="14" lengthAdjust="spacingAndGlyphs" textLength="32" x="8" y="82.9951">User</text><ellipse cx="27" cy="13" fill="#FEFECE" filter="url(#f1l5dgvq3cgupm)" rx="8" ry="8" style="stroke: #A80036; stroke-width: 2.0;"/><path d="M27,21 L27,48 M14,29 L40,29 M27,48 L14,63 M27,48 L40,63 " fill="none" filter="url(#f1l5dgvq3cgupm)" style="stroke: #A80036; stroke-width: 2.0;"/><text fill="#000000" font-family="sans-serif" font-size="14" lengthAdjust="spacingAndGlyphs" textLength="32" x="8" y="336.2217">User</text><ellipse cx="27" cy="349.5234" fill="#FEFECE" filter="url(#f1l5dgvq3cgupm)" rx="8" ry="8" style="stroke: #A80036; stroke-width: 2.0;"/><path d="M27,357.5234 L27,384.5234 M14,365.5234 L40,365.5234 M27,384.5234 L14,399.5234 M27,384.5234 L40,399.5234 " fill="none" filter="url(#f1l5dgvq3cgupm)" style="stroke: #A80036; stroke-width: 2.0;"/><rect fill="#FEFECE" filter="url(#f1l5dgvq3cgupm)" height="30.2969" style="stroke: #A80036; stroke-width: 1.5;" width="71" x="185.5" y="47"/><rect fill="#FEFECE" filter="url(#f1l5dgvq3cgupm)" height="30.2969" style="stroke: #A80036; stroke-width: 1.5;" width="71" x="181.5" y="51"/><text fill="#000000" font-family="sans-serif" font-size="14" lengthAdjust="spacingAndGlyphs" textLength="57" x="188.5" y="70.9951">Browser</text><rect fill="#FEFECE" filter="url(#f1l5dgvq3cgupm)" height="30.2969" style="stroke: #A80036; stroke-width: 1.5;" width="71" x="185.5" y="323.2266"/><rect fill="#FEFECE" filter="url(#f1l5dgvq3cgupm)" height="30.2969" style="stroke: #A80036; stroke-width: 1.5;" width="71" x="181.5" y="327.2266"/><text fill="#000000" font-family="sans-serif" font-size="14" lengthAdjust="spacingAndGlyphs" textLength="57" x="188.5" y="347.2217">Browser</text><rect fill="#FEFECE" filter="url(#f1l5dgvq3cgupm)" height="30.2969" style="stroke: #A80036; stroke-width: 1.5;" width="75" x="350.5" y="47"/><rect fill="#FEFECE" filter="url(#f1l5dgvq3cgupm)" height="30.2969" style="stroke: #A80036; stroke-width: 1.5;" width="75" x="346.5" y="51"/><text fill="#000000" font-family="sans-serif" font-size="14" lengthAdjust="spacingAndGlyphs" textLength="61" x="353.5" y="70.9951">Backend</text><rect fill="#FEFECE" filter="url(#f1l5dgvq3cgupm)" height="30.2969" style="stroke: #A80036; stroke-width: 1.5;" width="75" x="350.5" y="323.2266"/><rect fill="#FEFECE" filter="url(#f1l5dgvq3cgupm)" height="30.2969" style="stroke: #A80036; stroke-width: 1.5;" width="75" x="346.5" y="327.2266"/><text fill="#000000" font-family="sans-serif" font-size="14" lengthAdjust="spacingAndGlyphs" textLength="61" x="353.5" y="347.2217">Backend</text><text fill="#000000" font-family="sans-serif" font-size="14" lengthAdjust="spacingAndGlyphs" textLength="21" x="523.5" y="82.9951">DB</text><path d="M519,34 C519,24 537,24 537,24 C537,24 555,24 555,34 L555,60 C555,70 537,70 537,70 C537,70 519,70 519,60 L519,34 " fill="#FEFECE" filter="url(#f1l5dgvq3cgupm)" style="stroke: #000000; stroke-width: 1.5;"/><path d="M519,34 C519,44 537,44 537,44 C537,44 555,44 555,34 " fill="none" style="stroke: #000000; stroke-width: 1.5;"/><text fill="#000000" font-family="sans-serif" font-size="14" lengthAdjust="spacingAndGlyphs" textLength="21" x="523.5" y="336.2217">DB</text><path d="M519,349.5234 C519,339.5234 537,339.5234 537,339.5234 C537,339.5234 555,339.5234 555,349.5234 L555,375.5234 C555,385.5234 537,385.5234 537,385.5234 C537,385.5234 519,385.5234 519,375.5234 L519,349.5234 " fill="#FEFECE" filter="url(#f1l5dgvq3cgupm)" style="stroke: #000000; stroke-width: 1.5;"/><path d="M519,349.5234 C519,359.5234 537,359.5234 537,359.5234 C537,359.5234 555,359.5234 555,349.5234 " fill="none" style="stroke: #000000; stroke-width: 1.5;"/><rect fill="#EEEEEE" filter="url(#f1l5dgvq3cgupm)" height="3" style="stroke: #EEEEEE; stroke-width: 1.0;" width="557" x="3" y="116.8633"/><line style="stroke: #000000; stroke-width: 1.0;" x1="3" x2="560" y1="116.8633" y2="116.8633"/><line style="stroke: #000000; stroke-width: 1.0;" x1="3" x2="560" y1="119.8633" y2="119.8633"/><rect fill="#EEEEEE" filter="url(#f1l5dgvq3cgupm)" height="23.1328" style="stroke: #000000; stroke-width: 2.0;" width="105" x="229" y="106.2969"/><text fill="#000000" font-family="sans-serif" font-size="13" font-weight="bold" lengthAdjust="spacingAndGlyphs" textLength="86" x="235" y="122.3638">Show Order</text><polygon fill="#A80036" points="209,156.5625,219,160.5625,209,164.5625,213,160.5625" style="stroke: #A80036; stroke-width: 1.0;"/><line style="stroke: #A80036; stroke-width: 1.0;" x1="27" x2="215" y1="160.5625" y2="160.5625"/><text fill="#000000" font-family="sans-serif" font-size="13" lengthAdjust="spacingAndGlyphs" textLength="87" x="34" y="155.4966">Click on order</text><polygon fill="#A80036" points="376,185.6953,386,189.6953,376,193.6953,380,189.6953" style="stroke: #A80036; stroke-width: 1.0;"/><line style="stroke: #A80036; stroke-width: 1.0;" x1="221" x2="382" y1="189.6953" y2="189.6953"/><text fill="#000000" font-family="sans-serif" font-size="13" lengthAdjust="spacingAndGlyphs" textLength="143" x="228" y="184.6294">GET /show_order/&lt;id&gt;</text><polygon fill="#A80036" points="525,214.8281,535,218.8281,525,222.8281,529,218.8281" style="stroke: #A80036; stroke-width: 1.0;"/><line style="stroke: #A80036; stroke-width: 1.0;" x1="388" x2="531" y1="218.8281" y2="218.8281"/><text fill="#000000" font-family="sans-serif" font-size="13" lengthAdjust="spacingAndGlyphs" textLength="125" x="395" y="213.7622">get order with &lt;id&gt;</text><polygon fill="#A80036" points="399,243.9609,389,247.9609,399,251.9609,395,247.9609" style="stroke: #A80036; stroke-width: 1.0;"/><line style="stroke: #A80036; stroke-width: 1.0;" x1="393" x2="536" y1="247.9609" y2="247.9609"/><text fill="#000000" font-family="sans-serif" font-size="13" lengthAdjust="spacingAndGlyphs" textLength="114" x="405" y="242.895">return order &lt;id&gt;</text><polygon fill="#A80036" points="232,273.0938,222,277.0938,232,281.0938,228,277.0938" style="stroke: #A80036; stroke-width: 1.0;"/><line style="stroke: #A80036; stroke-width: 1.0;" x1="226" x2="387" y1="277.0938" y2="277.0938"/><text fill="#000000" font-family="sans-serif" font-size="13" lengthAdjust="spacingAndGlyphs" textLength="67" x="238" y="272.0278">order.html</text><polygon fill="#A80036" points="38,302.2266,28,306.2266,38,310.2266,34,306.2266" style="stroke: #A80036; stroke-width: 1.0;"/><line style="stroke: #A80036; stroke-width: 1.0;" x1="32" x2="220" y1="306.2266" y2="306.2266"/><text fill="#000000" font-family="sans-serif" font-size="13" lengthAdjust="spacingAndGlyphs" textLength="170" x="44" y="301.1606">Order details (list of items)</text><!--MD5=[b0d3e6870daf0da4746187bd5737cbac]
@startuml
actor User
collections Browser
collections Backend
database DB

== Show Order ==

User -> Browser : Click on order
Browser -> Backend : GET /show_order/<id>
Backend -> DB : get order with <id>
DB -> Backend : return order <id>
Backend -> Browser : order.html
Browser -> User : Order details (list of items)
@enduml

PlantUML version 1.2019.12beta6(Unknown compile time)
(GPL source distribution)
Java Runtime: Java(TM) SE Runtime Environment
JVM: Java HotSpot(TM) 64-Bit Server VM
Java Version: 1.7.0_25-b15
Operating System: Linux
Default Encoding: UTF-8
Language: en
Country: US
--></g></svg>